# xmcd
# Copyright (C) 1995-1998 Ti Kan
#
# Track frame offsets:
#       150
#       12231
#       20263
#       42275
#       64177
#       79884
#       93961
#       105244
#       122045
#       136056
#       148641
#       162083
#       186790
#       207966
#       222606
#       237892
#       245735
#       260084
#
# Disc length: 3677 seconds
#
# Revision: 0
# Processed by: cddbd v1.5.2PL0 Copyright (c) Steve Scherf et al.
# Submitted via: CD-Import v1.0
#
DISCID=fa0e5b12
DTITLE=Les Meilleures Musiques De Film - 
DYEAR=1900
DGENRE=
TTITLE0=Star Wars
TTITLE1=James Bond
TTITLE2=Apocalypse Now
TTITLE3=Rocky
TTITLE4=Il Était Une Fois Dans L'ouest
TTITLE5=Le Clan Des Siciliens
TTITLE6=Le Parrain
TTITLE7=Docteur Jivago
TTITLE8=Bilitis
TTITLE9=Le Pont De La Rivière Kwai
TTITLE10=Le Troisième Homme
TTITLE11=Mon Oncle
TTITLE12=1492 Christophe Colomb
TTITLE13=Lawrence D'arabie
TTITLE14=Le Professionnel
TTITLE15=Jeux Interdits
TTITLE16=Limelight
TTITLE17=Love Story
EXTD=
EXTT0=
EXTT1=
EXTT2=
EXTT3=
EXTT4=
EXTT5=
EXTT6=
EXTT7=
EXTT8=
EXTT9=
EXTT10=
EXTT11=
EXTT12=
EXTT13=
EXTT14=
EXTT15=
EXTT16=
EXTT17=
PLAYORDER=
